<svg xmlns="http://www.w3.org/2000/svg" viewBox="0 0 1600 1000" width="1600" height="1000" role="img" aria-label="Solar-powered smart irrigation: panel, soil moisture and a weekly watering schedule">
<defs>
  <radialGradient id="ga" cx=".1" cy=".15" r=".6"><stop offset="0" stop-color="#4a7058" stop-opacity=".5"/><stop offset="1" stop-color="#4a7058" stop-opacity="0"/></radialGradient>
  <radialGradient id="gb" cx=".95" cy=".3" r=".55"><stop offset="0" stop-color="#d9b256" stop-opacity=".5"/><stop offset="1" stop-color="#d9b256" stop-opacity="0"/></radialGradient>
  <radialGradient id="gc" cx=".55" cy="1.05" r=".7"><stop offset="0" stop-color="#c0655b" stop-opacity=".4"/><stop offset="1" stop-color="#c0655b" stop-opacity="0"/></radialGradient>
  <linearGradient id="liq" x1="0" y1="0" x2="0" y2="1"><stop offset="0" stop-color="#4f8a68"/><stop offset="1" stop-color="#2f5a42"/></linearGradient>
  <linearGradient id="area" x1="0" y1="0" x2="0" y2="1"><stop offset="0" stop-color="#436a52" stop-opacity=".35"/><stop offset="1" stop-color="#436a52" stop-opacity="0"/></linearGradient>
  <linearGradient id="soil" x1="0" y1="0" x2="0" y2="1"><stop offset="0" stop-color="#a98657"/><stop offset="1" stop-color="#7d6240"/></linearGradient>
  <filter id="sh" x="-10%" y="-10%" width="120%" height="135%"><feDropShadow dx="0" dy="24" stdDeviation="26" flood-color="#463a26" flood-opacity=".2"/></filter>
  <filter id="sm" x="-20%" y="-20%" width="140%" height="170%"><feDropShadow dx="0" dy="8" stdDeviation="10" flood-color="#463a26" flood-opacity=".15"/></filter>
  <pattern id="grid" width="48" height="48" patternUnits="userSpaceOnUse"><path d="M48 0H0V48" fill="none" stroke="#33503f" stroke-opacity=".07"/></pattern>
  <style>
    .t{font-family:'Segoe UI',Helvetica,Arial,sans-serif;fill:#322c21}
    .s{font-family:'Segoe UI',Helvetica,Arial,sans-serif;fill:#6c6353}
    .m{font-family:Consolas,Menlo,'Courier New',monospace;fill:#8d8372;letter-spacing:1.6px}
    .w{fill:#fff}
  </style>
</defs>
<rect width="1600" height="1000" fill="#e9e1d3"/>
<rect width="1600" height="1000" fill="url(#ga)"/><rect width="1600" height="1000" fill="url(#gb)"/><rect width="1600" height="1000" fill="url(#gc)"/>
<rect width="1600" height="1000" fill="url(#grid)"/>

<g stroke="#caa14a" stroke-width="9" stroke-linecap="round"><path d="M348.0 230.0L376.0 230.0"/><path d="M334.9 279.0L359.1 293.0"/><path d="M299.0 314.9L313.0 339.1"/><path d="M250.0 328.0L250.0 356.0"/><path d="M201.0 314.9L187.0 339.1"/><path d="M165.1 279.0L140.9 293.0"/><path d="M152.0 230.0L124.0 230.0"/><path d="M165.1 181.0L140.9 167.0"/><path d="M201.0 145.1L187.0 120.9"/><path d="M250.0 132.0L250.0 104.0"/><path d="M299.0 145.1L313.0 120.9"/><path d="M334.9 181.0L359.1 167.0"/></g>
<circle cx="250" cy="230" r="70" fill="#caa14a"/><circle cx="250" cy="230" r="70" fill="#fff" fill-opacity=".18"/>
<g filter="url(#sm)"><path d="M420 330H760L826 474H356Z" fill="#33503f"/></g>
<path d="M420 330H760L826 474H356Z" fill="none" stroke="#fff" stroke-opacity=".35" stroke-width="4"/>
<path d="M533 330L512 474M646 330L668 474M388 402H794" stroke="#fff" stroke-opacity=".28" stroke-width="3"/>
<path d="M591 474V620" stroke="#322c21" stroke-opacity=".55" stroke-width="16" stroke-linecap="round"/>
<g filter="url(#sm)"><rect x="100" y="680" width="860" height="170" rx="44" fill="url(#soil)"/></g>
<path d="M130 726H930" stroke="#4f8f9a" stroke-width="6" stroke-dasharray="2 14" stroke-linecap="round" stroke-opacity=".9"/>
<path d="M591 620V726" stroke="#322c21" stroke-opacity=".4" stroke-width="8" stroke-linecap="round"/>
<path d="M170 700q0-50-34-62M170 700q0-40 34-52" fill="none" stroke="#33503f" stroke-width="9" stroke-linecap="round"/><path d="M300 700q0-50-34-62M300 700q0-40 34-52" fill="none" stroke="#33503f" stroke-width="9" stroke-linecap="round"/><path d="M430 700q0-50-34-62M430 700q0-40 34-52" fill="none" stroke="#33503f" stroke-width="9" stroke-linecap="round"/><path d="M560 700q0-50-34-62M560 700q0-40 34-52" fill="none" stroke="#33503f" stroke-width="9" stroke-linecap="round"/><path d="M690 700q0-50-34-62M690 700q0-40 34-52" fill="none" stroke="#33503f" stroke-width="9" stroke-linecap="round"/><path d="M820 700q0-50-34-62M820 700q0-40 34-52" fill="none" stroke="#33503f" stroke-width="9" stroke-linecap="round"/><path d="M170 742c-9 14-13 20-13 27a13 13 0 0 0 26 0c0-7-4-13-13-27z" fill="#4f8f9a" fill-opacity=".85"/><path d="M300 750c-9 14-13 20-13 27a13 13 0 0 0 26 0c0-7-4-13-13-27z" fill="#4f8f9a" fill-opacity=".85"/><path d="M430 742c-9 14-13 20-13 27a13 13 0 0 0 26 0c0-7-4-13-13-27z" fill="#4f8f9a" fill-opacity=".85"/><path d="M560 750c-9 14-13 20-13 27a13 13 0 0 0 26 0c0-7-4-13-13-27z" fill="#4f8f9a" fill-opacity=".85"/><path d="M690 742c-9 14-13 20-13 27a13 13 0 0 0 26 0c0-7-4-13-13-27z" fill="#4f8f9a" fill-opacity=".85"/><path d="M820 750c-9 14-13 20-13 27a13 13 0 0 0 26 0c0-7-4-13-13-27z" fill="#4f8f9a" fill-opacity=".85"/>
<g filter="url(#sh)"><rect x="1010" y="130" width="440" height="740" rx="44" fill="#fffdf8" fill-opacity=".78" stroke="#fff" stroke-width="2"/></g>
<text class="t" x="1060" y="206" font-size="30" font-weight="600">Smart Irrigation</text><text class="m" x="1060" y="236" font-size="16">ARDUINO · SOLAR · OFF-GRID</text>
<circle cx="1230" cy="400" r="98" fill="none" stroke="#322c21" stroke-opacity=".1" stroke-width="24"/>
<circle cx="1230" cy="400" r="98" fill="none" stroke="#4f8f9a" stroke-width="24" stroke-linecap="round" stroke-dasharray="252 616" transform="rotate(-90 1230 400)"/>
<text class="t" x="1230" y="418" font-size="52" font-weight="700" text-anchor="middle">41%</text><text class="m" x="1230" y="448" font-size="14" text-anchor="middle">SOIL MOISTURE</text>
<g filter="url(#sm)"><rect x="1060" y="540" width="340" height="86" rx="28" fill="#fff" fill-opacity=".8"/></g>
<circle cx="1104" cy="583" r="22" fill="#caa14a"/><text class="t" x="1146" y="580" font-size="28" font-weight="700">06:30</text><text class="m" x="1146" y="606" font-size="14">NEXT WATERING</text>
<text class="m" x="1060" y="690" font-size="15">THIS WEEK</text>
<rect x="1090" y="715" width="34" height="75" rx="12" fill="#436a52" fill-opacity="0.55"/><text class="m" x="1107" y="822" font-size="14" text-anchor="middle">M</text><rect x="1142" y="685" width="34" height="105" rx="12" fill="#436a52" fill-opacity="0.55"/><text class="m" x="1159" y="822" font-size="14" text-anchor="middle">T</text><rect x="1194" y="737.5" width="34" height="52.5" rx="12" fill="#436a52" fill-opacity="0.55"/><text class="m" x="1211" y="822" font-size="14" text-anchor="middle">W</text><rect x="1246" y="670" width="34" height="120" rx="12" fill="#436a52" fill-opacity="0.55"/><text class="m" x="1263" y="822" font-size="14" text-anchor="middle">T</text><rect x="1298" y="700" width="34" height="90" rx="12" fill="#436a52" fill-opacity="0.55"/><text class="m" x="1315" y="822" font-size="14" text-anchor="middle">F</text><rect x="1350" y="655" width="34" height="135" rx="12" fill="#436a52" fill-opacity="1"/><text class="m" x="1367" y="822" font-size="14" text-anchor="middle">S</text><rect x="1402" y="722.5" width="34" height="67.5" rx="12" fill="#436a52" fill-opacity="0.55"/><text class="m" x="1419" y="822" font-size="14" text-anchor="middle">S</text>
</svg>
